<mxfile host="app.diagrams.net" modified="2024-01-15T10:00:00.000Z" agent="5.0" etag="ghi789" version="22.1.16">
  <diagram name="Realtime Processing Flow" id="realtime-processing">
    <mxGraphModel dx="1422" dy="794" grid="1" gridSize="10" guides="1" tooltips="1" connect="1" arrows="1" fold="1" page="1" pageScale="1" pageWidth="1654" pageHeight="1169" math="0" shadow="0">
      <root>
        <mxCell id="0" />
        <mxCell id="1" parent="0" />
        
        <!-- 标题 -->
        <mxCell id="title" value="实时增量数据处理架构流程" style="text;html=1;strokeColor=none;fillColor=none;align=center;verticalAlign=middle;whiteSpace=wrap;rounded=0;fontSize=24;fontStyle=1;fontColor=#1f4e79;" vertex="1" parent="1">
          <mxGeometry x="600" y="20" width="400" height="40" as="geometry" />
        </mxCell>
        
        <!-- 数据源层 -->
        <mxCell id="data-sources" value="多源数据接入" style="rounded=1;whiteSpace=wrap;html=1;fillColor=#e1d5e7;strokeColor=#9673a6;fontSize=16;fontStyle=1;" vertex="1" parent="1">
          <mxGeometry x="50" y="100" width="200" height="40" as="geometry" />
        </mxCell>
        
        <!-- Kafka数据流 -->
        <mxCell id="kafka-stream" value="Kafka数据流&lt;br&gt;• 营销系统变更&lt;br&gt;• 客户档案更新&lt;br&gt;• 地址信息修正" style="rounded=1;whiteSpace=wrap;html=1;fillColor=#f8cecc;strokeColor=#b85450;" vertex="1" parent="1">
          <mxGeometry x="50" y="160" width="120" height="80" as="geometry" />
        </mxCell>
        
        <!-- 外部API -->
        <mxCell id="external-api" value="外部API&lt;br&gt;• 地址标准化&lt;br&gt;• 第三方验证&lt;br&gt;• 政府数据" style="rounded=1;whiteSpace=wrap;html=1;fillColor=#f8cecc;strokeColor=#b85450;" vertex="1" parent="1">
          <mxGeometry x="180" y="160" width="120" height="80" as="geometry" />
        </mxCell>
        
        <!-- 批量文件 -->
        <mxCell id="batch-files" value="批量文件&lt;br&gt;• CSV导入&lt;br&gt;• Excel文件&lt;br&gt;• 历史数据" style="rounded=1;whiteSpace=wrap;html=1;fillColor=#f8cecc;strokeColor=#b85450;" vertex="1" parent="1">
          <mxGeometry x="50" y="260" width="120" height="80" as="geometry" />
        </mxCell>
        
        <!-- CDC变更捕获 -->
        <mxCell id="cdc-capture" value="CDC变更捕获&lt;br&gt;• MySQL Binlog&lt;br&gt;• 增量同步&lt;br&gt;• 实时捕获" style="rounded=1;whiteSpace=wrap;html=1;fillColor=#f8cecc;strokeColor=#b85450;" vertex="1" parent="1">
          <mxGeometry x="180" y="260" width="120" height="80" as="geometry" />
        </mxCell>
        
        <!-- Flink流处理层 -->
        <mxCell id="flink-processing" value="Flink 2.1 流处理引擎" style="rounded=1;whiteSpace=wrap;html=1;fillColor=#d5e8d4;strokeColor=#82b366;fontSize=16;fontStyle=1;" vertex="1" parent="1">
          <mxGeometry x="370" y="100" width="300" height="40" as="geometry" />
        </mxCell>
        
        <!-- 智能数据路由 -->
        <mxCell id="smart-routing" value="智能数据路由&lt;br&gt;• 数据质量评估&lt;br&gt;• 类型识别&lt;br&gt;• 优先级分配&lt;br&gt;• 动态路由" style="rounded=1;whiteSpace=wrap;html=1;fillColor=#dae8fc;strokeColor=#6c8ebf;" vertex="1" parent="1">
          <mxGeometry x="330" y="160" width="140" height="100" as="geometry" />
        </mxCell>
        
        <!-- 增量处理策略 -->
        <mxCell id="incremental-strategy" value="增量处理策略&lt;br&gt;• 变更优先级&lt;br&gt;• 字段重要性&lt;br&gt;• 批处理阈值&lt;br&gt;• 变更显著性" style="rounded=1;whiteSpace=wrap;html=1;fillColor=#dae8fc;strokeColor=#6c8ebf;" vertex="1" parent="1">
          <mxGeometry x="480" y="160" width="140" height="100" as="geometry" />
        </mxCell>
        
        <!-- 状态管理 -->
        <mxCell id="state-management" value="分层状态管理&lt;br&gt;• 内存状态&lt;br&gt;• RocksDB持久化&lt;br&gt;• 外部存储&lt;br&gt;• 状态快照" style="rounded=1;whiteSpace=wrap;html=1;fillColor=#dae8fc;strokeColor=#6c8ebf;" vertex="1" parent="1">
          <mxGeometry x="630" y="160" width="140" height="100" as="geometry" />
        </mxCell>
        
        <!-- 容错恢复 -->
        <mxCell id="fault-recovery" value="智能容错恢复&lt;br&gt;• 故障检测&lt;br&gt;• 原因分析&lt;br&gt;• 恢复策略&lt;br&gt;• 自动重启" style="rounded=1;whiteSpace=wrap;html=1;fillColor=#dae8fc;strokeColor=#6c8ebf;" vertex="1" parent="1">
          <mxGeometry x="330" y="280" width="140" height="100" as="geometry" />
        </mxCell>
        
        <!-- 性能监控 -->
        <mxCell id="performance-monitor" value="实时性能监控&lt;br&gt;• 延迟监控&lt;br&gt;• 吞吐量统计&lt;br&gt;• 背压检测&lt;br&gt;• 内存使用" style="rounded=1;whiteSpace=wrap;html=1;fillColor=#dae8fc;strokeColor=#6c8ebf;" vertex="1" parent="1">
          <mxGeometry x="480" y="280" width="140" height="100" as="geometry" />
        </mxCell>
        
        <!-- 自动扩缩容 -->
        <mxCell id="auto-scaling" value="智能扩缩容&lt;br&gt;• HPA水平扩展&lt;br&gt;• VPA垂直扩展&lt;br&gt;• 预测性扩容&lt;br&gt;• 资源优化" style="rounded=1;whiteSpace=wrap;html=1;fillColor=#dae8fc;strokeColor=#6c8ebf;" vertex="1" parent="1">
          <mxGeometry x="630" y="280" width="140" height="100" as="geometry" />
        </mxCell>
        
        <!-- 数据处理层 -->
        <mxCell id="data-processing" value="数据处理与转换" style="rounded=1;whiteSpace=wrap;html=1;fillColor=#fff2cc;strokeColor=#d6b656;fontSize=16;fontStyle=1;" vertex="1" parent="1">
          <mxGeometry x="820" y="100" width="200" height="40" as="geometry" />
        </mxCell>
        
        <!-- 数据清洗 -->
        <mxCell id="data-cleaning" value="数据清洗&lt;br&gt;• 格式标准化&lt;br&gt;• 重复数据去除&lt;br&gt;• 异常值处理&lt;br&gt;• 数据补全" style="rounded=1;whiteSpace=wrap;html=1;fillColor=#ffe6cc;strokeColor=#d79b00;" vertex="1" parent="1">
          <mxGeometry x="820" y="160" width="120" height="100" as="geometry" />
        </mxCell>
        
        <!-- 数据验证 -->
        <mxCell id="data-validation" value="数据验证&lt;br&gt;• 业务规则校验&lt;br&gt;• 完整性检查&lt;br&gt;• 一致性验证&lt;br&gt;• 准确性评估" style="rounded=1;whiteSpace=wrap;html=1;fillColor=#ffe6cc;strokeColor=#d79b00;" vertex="1" parent="1">
          <mxGeometry x="950" y="160" width="120" height="100" as="geometry" />
        </mxCell>
        
        <!-- 数据增强 -->
        <mxCell id="data-enrichment" value="数据增强&lt;br&gt;• 地址标准化&lt;br&gt;• 关联数据补充&lt;br&gt;• 智能推理&lt;br&gt;• 质量评分" style="rounded=1;whiteSpace=wrap;html=1;fillColor=#ffe6cc;strokeColor=#d79b00;" vertex="1" parent="1">
          <mxGeometry x="820" y="280" width="120" height="100" as="geometry" />
        </mxCell>
        
        <!-- 数据路由 -->
        <mxCell id="data-routing" value="数据路由&lt;br&gt;• 目标系统分发&lt;br&gt;• 格式转换&lt;br&gt;• 批量聚合&lt;br&gt;• 异步投递" style="rounded=1;whiteSpace=wrap;html=1;fillColor=#ffe6cc;strokeColor=#d79b00;" vertex="1" parent="1">
          <mxGeometry x="950" y="280" width="120" height="100" as="geometry" />
        </mxCell>
        
        <!-- 存储层 -->
        <mxCell id="storage-layer" value="多层存储架构" style="rounded=1;whiteSpace=wrap;html=1;fillColor=#f0f0f0;strokeColor=#666666;fontSize=16;fontStyle=1;" vertex="1" parent="1">
          <mxGeometry x="1120" y="100" width="200" height="40" as="geometry" />
        </mxCell>
        
        <!-- PostgreSQL -->
        <mxCell id="postgresql" value="PostgreSQL&lt;br&gt;• 主数据存储&lt;br&gt;• ACID事务&lt;br&gt;• 复杂查询&lt;br&gt;• 数据一致性" style="rounded=1;whiteSpace=wrap;html=1;fillColor=#e1d5e7;strokeColor=#9673a6;" vertex="1" parent="1">
          <mxGeometry x="1120" y="160" width="120" height="100" as="geometry" />
        </mxCell>
        
        <!-- Redis缓存 -->
        <mxCell id="redis-cache" value="Redis缓存&lt;br&gt;• 热数据缓存&lt;br&gt;• 会话管理&lt;br&gt;• 分布式锁&lt;br&gt;• 计数器" style="rounded=1;whiteSpace=wrap;html=1;fillColor=#e1d5e7;strokeColor=#9673a6;" vertex="1" parent="1">
          <mxGeometry x="1250" y="160" width="120" height="100" as="geometry" />
        </mxCell>
        
        <!-- 对象存储 -->
        <mxCell id="object-storage" value="对象存储&lt;br&gt;• 文件归档&lt;br&gt;• 历史备份&lt;br&gt;• 大文件存储&lt;br&gt;• 冷数据" style="rounded=1;whiteSpace=wrap;html=1;fillColor=#e1d5e7;strokeColor=#9673a6;" vertex="1" parent="1">
          <mxGeometry x="1120" y="280" width="120" height="100" as="geometry" />
        </mxCell>
        
        <!-- 时序数据库 -->
        <mxCell id="timeseries-db" value="时序数据库&lt;br&gt;• 监控指标&lt;br&gt;• 性能数据&lt;br&gt;• 趋势分析&lt;br&gt;• 告警数据" style="rounded=1;whiteSpace=wrap;html=1;fillColor=#e1d5e7;strokeColor=#9673a6;" vertex="1" parent="1">
          <mxGeometry x="1250" y="280" width="120" height="100" as="geometry" />
        </mxCell>
        
        <!-- 应用服务层 -->
        <mxCell id="application-layer" value="应用服务层" style="rounded=1;whiteSpace=wrap;html=1;fillColor=#d4edda;strokeColor=#28a745;fontSize=16;fontStyle=1;" vertex="1" parent="1">
          <mxGeometry x="1420" y="100" width="180" height="40" as="geometry" />
        </mxCell>
        
        <!-- 数据治理应用 -->
        <mxCell id="governance-app" value="数据治理应用&lt;br&gt;• 质量监控&lt;br&gt;• 规则管理&lt;br&gt;• 报表分析&lt;br&gt;• 异常处理" style="rounded=1;whiteSpace=wrap;html=1;fillColor=#d1ecf1;strokeColor=#0c5460;" vertex="1" parent="1">
          <mxGeometry x="1420" y="160" width="120" height="100" as="geometry" />
        </mxCell>
        
        <!-- 监控告警 -->
        <mxCell id="monitoring-alert" value="监控告警&lt;br&gt;• 实时监控&lt;br&gt;• 智能告警&lt;br&gt;• 故障诊断&lt;br&gt;• 性能分析" style="rounded=1;whiteSpace=wrap;html=1;fillColor=#d1ecf1;strokeColor=#0c5460;" vertex="1" parent="1">
          <mxGeometry x="1550" y="160" width="120" height="100" as="geometry" />
        </mxCell>
        
        <!-- API服务 -->
        <mxCell id="api-service" value="API服务&lt;br&gt;• RESTful API&lt;br&gt;• GraphQL&lt;br&gt;• 权限控制&lt;br&gt;• 限流熔断" style="rounded=1;whiteSpace=wrap;html=1;fillColor=#d1ecf1;strokeColor=#0c5460;" vertex="1" parent="1">
          <mxGeometry x="1420" y="280" width="120" height="100" as="geometry" />
        </mxCell>
        
        <!-- 运维管理 -->
        <mxCell id="ops-management" value="运维管理&lt;br&gt;• 部署管理&lt;br&gt;• 配置中心&lt;br&gt;• 日志管理&lt;br&gt;• 健康检查" style="rounded=1;whiteSpace=wrap;html=1;fillColor=#d1ecf1;strokeColor=#0c5460;" vertex="1" parent="1">
          <mxGeometry x="1550" y="280" width="120" height="100" as="geometry" />
        </mxCell>
        
        <!-- 数据流箭头 -->
        <mxCell id="flow1" value="数据接入" style="endArrow=classic;html=1;rounded=0;strokeWidth=3;strokeColor=#e74c3c;" edge="1" parent="1" source="kafka-stream" target="smart-routing">
          <mxGeometry width="50" height="50" relative="1" as="geometry">
            <mxPoint x="170" y="200" as="sourcePoint" />
            <mxPoint x="330" y="210" as="targetPoint" />
          </mxGeometry>
        </mxCell>
        
        <mxCell id="flow2" value="API数据" style="endArrow=classic;html=1;rounded=0;strokeWidth=2;strokeColor=#e74c3c;" edge="1" parent="1" source="external-api" target="smart-routing">
          <mxGeometry width="50" height="50" relative="1" as="geometry">
            <mxPoint x="300" y="200" as="sourcePoint" />
            <mxPoint x="330" y="210" as="targetPoint" />
          </mxGeometry>
        </mxCell>
        
        <mxCell id="flow3" value="批量数据" style="endArrow=classic;html=1;rounded=0;strokeWidth=2;strokeColor=#e74c3c;" edge="1" parent="1" source="batch-files" target="incremental-strategy">
          <mxGeometry width="50" height="50" relative="1" as="geometry">
            <mxPoint x="170" y="300" as="sourcePoint" />
            <mxPoint x="480" y="210" as="targetPoint" />
          </mxGeometry>
        </mxCell>
        
        <mxCell id="flow4" value="CDC数据" style="endArrow=classic;html=1;rounded=0;strokeWidth=3;strokeColor=#e74c3c;" edge="1" parent="1" source="cdc-capture" target="incremental-strategy">
          <mxGeometry width="50" height="50" relative="1" as="geometry">
            <mxPoint x="300" y="300" as="sourcePoint" />
            <mxPoint x="480" y="210" as="targetPoint" />
          </mxGeometry>
        </mxCell>
        
        <mxCell id="flow5" value="状态同步" style="endArrow=classic;html=1;rounded=0;strokeWidth=2;strokeColor=#f39c12;" edge="1" parent="1" source="smart-routing" target="state-management">
          <mxGeometry width="50" height="50" relative="1" as="geometry">
            <mxPoint x="470" y="210" as="sourcePoint" />
            <mxPoint x="630" y="210" as="targetPoint" />
          </mxGeometry>
        </mxCell>
        
        <mxCell id="flow6" value="增量处理" style="endArrow=classic;html=1;rounded=0;strokeWidth=2;strokeColor=#f39c12;" edge="1" parent="1" source="incremental-strategy" target="state-management">
          <mxGeometry width="50" height="50" relative="1" as="geometry">
            <mxPoint x="620" y="210" as="sourcePoint" />
            <mxPoint x="630" y="210" as="targetPoint" />
          </mxGeometry>
        </mxCell>
        
        <mxCell id="flow7" value="容错处理" style="endArrow=classic;html=1;rounded=0;strokeWidth=2;strokeColor=#f39c12;" edge="1" parent="1" source="fault-recovery" target="performance-monitor">
          <mxGeometry width="50" height="50" relative="1" as="geometry">
            <mxPoint x="470" y="330" as="sourcePoint" />
            <mxPoint x="480" y="330" as="targetPoint" />
          </mxGeometry>
        </mxCell>
        
        <mxCell id="flow8" value="性能监控" style="endArrow=classic;html=1;rounded=0;strokeWidth=2;strokeColor=#f39c12;" edge="1" parent="1" source="performance-monitor" target="auto-scaling">
          <mxGeometry width="50" height="50" relative="1" as="geometry">
            <mxPoint x="620" y="330" as="sourcePoint" />
            <mxPoint x="630" y="330" as="targetPoint" />
          </mxGeometry>
        </mxCell>
        
        <mxCell id="flow9" value="数据处理" style="endArrow=classic;html=1;rounded=0;strokeWidth=3;strokeColor=#27ae60;" edge="1" parent="1" source="state-management" target="data-cleaning">
          <mxGeometry width="50" height="50" relative="1" as="geometry">
            <mxPoint x="770" y="210" as="sourcePoint" />
            <mxPoint x="820" y="210" as="targetPoint" />
          </mxGeometry>
        </mxCell>
        
        <mxCell id="flow10" value="数据验证" style="endArrow=classic;html=1;rounded=0;strokeWidth=2;strokeColor=#27ae60;" edge="1" parent="1" source="data-cleaning" target="data-validation">
          <mxGeometry width="50" height="50" relative="1" as="geometry">
            <mxPoint x="940" y="210" as="sourcePoint" />
            <mxPoint x="950" y="210" as="targetPoint" />
          </mxGeometry>
        </mxCell>
        
        <mxCell id="flow11" value="数据增强" style="endArrow=classic;html=1;rounded=0;strokeWidth=2;strokeColor=#27ae60;" edge="1" parent="1" source="data-cleaning" target="data-enrichment">
          <mxGeometry width="50" height="50" relative="1" as="geometry">
            <mxPoint x="880" y="260" as="sourcePoint" />
            <mxPoint x="880" y="280" as="targetPoint" />
          </mxGeometry>
        </mxCell>
        
        <mxCell id="flow12" value="数据路由" style="endArrow=classic;html=1;rounded=0;strokeWidth=2;strokeColor=#27ae60;" edge="1" parent="1" source="data-validation" target="data-routing">
          <mxGeometry width="50" height="50" relative="1" as="geometry">
            <mxPoint x="1010" y="260" as="sourcePoint" />
            <mxPoint x="1010" y="280" as="targetPoint" />
          </mxGeometry>
        </mxCell>
        
        <mxCell id="flow13" value="主存储" style="endArrow=classic;html=1;rounded=0;strokeWidth=3;strokeColor=#3498db;" edge="1" parent="1" source="data-validation" target="postgresql">
          <mxGeometry width="50" height="50" relative="1" as="geometry">
            <mxPoint x="1070" y="210" as="sourcePoint" />
            <mxPoint x="1120" y="210" as="targetPoint" />
          </mxGeometry>
        </mxCell>
        
        <mxCell id="flow14" value="缓存" style="endArrow=classic;html=1;rounded=0;strokeWidth=2;strokeColor=#3498db;" edge="1" parent="1" source="data-enrichment" target="redis-cache">
          <mxGeometry width="50" height="50" relative="1" as="geometry">
            <mxPoint x="940" y="330" as="sourcePoint" />
            <mxPoint x="1250" y="210" as="targetPoint" />
          </mxGeometry>
        </mxCell>
        
        <mxCell id="flow15" value="归档" style="endArrow=classic;html=1;rounded=0;strokeWidth=2;strokeColor=#3498db;" edge="1" parent="1" source="data-routing" target="object-storage">
          <mxGeometry width="50" height="50" relative="1" as="geometry">
            <mxPoint x="1070" y="330" as="sourcePoint" />
            <mxPoint x="1120" y="330" as="targetPoint" />
          </mxGeometry>
        </mxCell>
        
        <mxCell id="flow16" value="监控数据" style="endArrow=classic;html=1;rounded=0;strokeWidth=2;strokeColor=#3498db;" edge="1" parent="1" source="auto-scaling" target="timeseries-db">
          <mxGeometry width="50" height="50" relative="1" as="geometry">
            <mxPoint x="770" y="330" as="sourcePoint" />
            <mxPoint x="1250" y="330" as="targetPoint" />
          </mxGeometry>
        </mxCell>
        
        <mxCell id="flow17" value="应用服务" style="endArrow=classic;html=1;rounded=0;strokeWidth=2;strokeColor=#9b59b6;" edge="1" parent="1" source="postgresql" target="governance-app">
          <mxGeometry width="50" height="50" relative="1" as="geometry">
            <mxPoint x="1240" y="210" as="sourcePoint" />
            <mxPoint x="1420" y="210" as="targetPoint" />
          </mxGeometry>
        </mxCell>
        
        <mxCell id="flow18" value="监控告警" style="endArrow=classic;html=1;rounded=0;strokeWidth=2;strokeColor=#9b59b6;" edge="1" parent="1" source="timeseries-db" target="monitoring-alert">
          <mxGeometry width="50" height="50" relative="1" as="geometry">
            <mxPoint x="1370" y="330" as="sourcePoint" />
            <mxPoint x="1550" y="210" as="targetPoint" />
          </mxGeometry>
        </mxCell>
        
        <mxCell id="flow19" value="API服务" style="endArrow=classic;html=1;rounded=0;strokeWidth=2;strokeColor=#9b59b6;" edge="1" parent="1" source="redis-cache" target="api-service">
          <mxGeometry width="50" height="50" relative="1" as="geometry">
            <mxPoint x="1370" y="210" as="sourcePoint" />
            <mxPoint x="1420" y="330" as="targetPoint" />
          </mxGeometry>
        </mxCell>
        
        <mxCell id="flow20" value="运维管理" style="endArrow=classic;html=1;rounded=0;strokeWidth=2;strokeColor=#9b59b6;" edge="1" parent="1" source="object-storage" target="ops-management">
          <mxGeometry width="50" height="50" relative="1" as="geometry">
            <mxPoint x="1240" y="330" as="sourcePoint" />
            <mxPoint x="1550" y="330" as="targetPoint" />
          </mxGeometry>
        </mxCell>
        
        <!-- 处理特性标注 -->
        <mxCell id="feature1" value="多源数据接入" style="text;html=1;strokeColor=#b85450;fillColor=#f8cecc;align=center;verticalAlign=middle;whiteSpace=wrap;rounded=1;fontSize=12;fontStyle=1;" vertex="1" parent="1">
          <mxGeometry x="90" y="420" width="120" height="30" as="geometry" />
        </mxCell>
        
        <mxCell id="feature2" value="智能流处理" style="text;html=1;strokeColor=#6c8ebf;fillColor=#dae8fc;align=center;verticalAlign=middle;whiteSpace=wrap;rounded=1;fontSize=12;fontStyle=1;" vertex="1" parent="1">
          <mxGeometry x="460" y="420" width="120" height="30" as="geometry" />
        </mxCell>
        
        <mxCell id="feature3" value="数据处理转换" style="text;html=1;strokeColor=#d79b00;fillColor=#ffe6cc;align=center;verticalAlign=middle;whiteSpace=wrap;rounded=1;fontSize=12;fontStyle=1;" vertex="1" parent="1">
          <mxGeometry x="860" y="420" width="120" height="30" as="geometry" />
        </mxCell>
        
        <mxCell id="feature4" value="多层存储" style="text;html=1;strokeColor=#9673a6;fillColor=#e1d5e7;align=center;verticalAlign=middle;whiteSpace=wrap;rounded=1;fontSize=12;fontStyle=1;" vertex="1" parent="1">
          <mxGeometry x="1160" y="420" width="100" height="30" as="geometry" />
        </mxCell>
        
        <mxCell id="feature5" value="应用服务" style="text;html=1;strokeColor=#0c5460;fillColor=#d1ecf1;align=center;verticalAlign=middle;whiteSpace=wrap;rounded=1;fontSize=12;fontStyle=1;" vertex="1" parent="1">
          <mxGeometry x="1460" y="420" width="100" height="30" as="geometry" />
        </mxCell>
        
        <!-- 性能指标 -->
        <mxCell id="performance-metrics" value="性能指标&lt;br&gt;• 处理延迟: &amp;lt;50ms&lt;br&gt;• 吞吐量: 500万条/秒&lt;br&gt;• 可用性: 99.99%&lt;br&gt;• 数据准确率: 99.8%&lt;br&gt;• 故障恢复时间: &amp;lt;30s" style="rounded=1;whiteSpace=wrap;html=1;fillColor=#f5f5f5;strokeColor=#666666;align=left;" vertex="1" parent="1">
          <mxGeometry x="50" y="470" width="200" height="120" as="geometry" />
        </mxCell>
        
        <!-- 扩缩容策略 -->
        <mxCell id="scaling-strategy" value="扩缩容策略&lt;br&gt;• CPU使用率 &amp;gt; 70% 扩容&lt;br&gt;• 内存使用率 &amp;gt; 80% 扩容&lt;br&gt;• 背压检测自动扩容&lt;br&gt;• 预测性扩容&lt;br&gt;• 最小实例数: 2&lt;br&gt;• 最大实例数: 50" style="rounded=1;whiteSpace=wrap;html=1;fillColor=#f5f5f5;strokeColor=#666666;align=left;" vertex="1" parent="1">
          <mxGeometry x="280" y="470" width="200" height="120" as="geometry" />
        </mxCell>
        
        <!-- 容错机制 -->
        <mxCell id="fault-tolerance" value="容错机制&lt;br&gt;• Checkpoint每5分钟&lt;br&gt;• Savepoint手动触发&lt;br&gt;• 状态后端: RocksDB&lt;br&gt;• 重启策略: 指数退避&lt;br&gt;• 最大重启次数: 10&lt;br&gt;• 故障转移时间: &amp;lt;10s" style="rounded=1;whiteSpace=wrap;html=1;fillColor=#f5f5f5;strokeColor=#666666;align=left;" vertex="1" parent="1">
          <mxGeometry x="510" y="470" width="200" height="120" as="geometry" />
        </mxCell>
        
        <!-- 监控告警 -->
        <mxCell id="monitoring-config" value="监控告警配置&lt;br&gt;• 延迟告警: &amp;gt;100ms&lt;br&gt;• 吞吐量告警: &amp;lt;100万/秒&lt;br&gt;• 错误率告警: &amp;gt;1%&lt;br&gt;• 背压告警: &amp;gt;0.1&lt;br&gt;• 内存告警: &amp;gt;85%&lt;br&gt;• 磁盘告警: &amp;gt;90%" style="rounded=1;whiteSpace=wrap;html=1;fillColor=#f5f5f5;strokeColor=#666666;align=left;" vertex="1" parent="1">
          <mxGeometry x="740" y="470" width="200" height="120" as="geometry" />
        </mxCell>
        
        <!-- 部署架构 -->
        <mxCell id="deployment-arch" value="部署架构&lt;br&gt;• Kubernetes集群&lt;br&gt;• Docker容器化&lt;br&gt;• Helm包管理&lt;br&gt;• Istio服务网格&lt;br&gt;• Prometheus监控&lt;br&gt;• Grafana可视化" style="rounded=1;whiteSpace=wrap;html=1;fillColor=#f5f5f5;strokeColor=#666666;align=left;" vertex="1" parent="1">
          <mxGeometry x="970" y="470" width="200" height="120" as="geometry" />
        </mxCell>
        
        <!-- 数据流量 -->
        <mxCell id="data-flow-stats" value="数据流量统计&lt;br&gt;• 日处理量: 100TB&lt;br&gt;• 峰值QPS: 1000万&lt;br&gt;• 并发连接: 10万&lt;br&gt;• 存储增长: 10TB/天&lt;br&gt;• 查询响应: &amp;lt;100ms&lt;br&gt;• 批处理窗口: 1分钟" style="rounded=1;whiteSpace=wrap;html=1;fillColor=#f5f5f5;strokeColor=#666666;align=left;" vertex="1" parent="1">
          <mxGeometry x="1200" y="470" width="200" height="120" as="geometry" />
        </mxCell>
        
        <!-- 技术栈 -->
        <mxCell id="tech-stack" value="核心技术栈&lt;br&gt;• Apache Flink 2.1&lt;br&gt;• Apache Kafka&lt;br&gt;• PostgreSQL 15&lt;br&gt;• Redis 7.0&lt;br&gt;• Kubernetes 1.28&lt;br&gt;• Prometheus + Grafana" style="rounded=1;whiteSpace=wrap;html=1;fillColor=#f5f5f5;strokeColor=#666666;align=left;" vertex="1" parent="1">
          <mxGeometry x="1430" y="470" width="200" height="120" as="geometry" />
        </mxCell>
        
      </root>
    </mxGraphModel>
  </diagram>
</mxfile>